<svg width="312" height="144" viewBox="0 0 312 144" fill="none" xmlns="http://www.w3.org/2000/svg">
    <g clip-path="url(#clip0_1_100)">
        <g clip-path="url(#clip1_1_100)">
            <path
                d="M95.9798 58.859C93.8006 56.9853 90.7657 56.1835 87.7792 56.9837L86.8131 57.2426C86.8131 57.2426 73.536 49.0558 73.7112 48.1414C71.8997 49.8505 71.036 52.4526 71.726 55.0278C71.726 55.0278 59.3073 51.2514 59.5465 50.119C57.8896 51.9956 57.179 54.83 57.9442 57.6855L58.2144 58.6939C58.2144 58.6939 46.8504 58.374 47.1943 57.3088C45.3747 59.0179 44.506 61.6257 45.1976 64.2068L46.1738 67.8501L37.8293 83.0724L39.1985 88.1824L79.8232 107.194C79.8232 107.194 93.7117 57.5806 95.9798 58.859Z"
                fill="#EF9645" />
            <path
                d="M45.865 88.9214C48.7126 88.1584 50.7242 85.8991 51.3602 83.2189C53.2975 85.2096 56.2005 86.1521 59.0751 85.3818L59.2217 85.3425C61.4493 84.7457 63.148 83.2348 64.131 81.3396C64.1632 81.2813 64.2296 81.1433 64.2296 81.1433C64.4772 80.6381 64.6605 80.1004 64.7992 79.5517C64.839 79.392 65.0205 78.2066 65.0287 77.7656C65.0394 77.4043 65.0552 77.046 65.0152 76.68C65.374 76.9295 65.7521 77.1431 66.1421 77.3306C66.3059 77.4088 67.1869 77.7526 67.4686 77.8302C68.788 78.2034 70.2137 78.254 71.6374 77.8726L77.7538 76.2337C76.8599 77.0323 76.1417 77.9372 75.5206 78.9027C72.9919 82.8268 72.6527 88.1296 74.5048 95.0417C74.6477 95.5748 75.1965 95.8915 75.7297 95.7486C76.2629 95.6057 76.5796 95.0572 76.4368 94.524C74.3858 86.8698 75.0609 81.5851 78.7293 78.043C80.6621 76.1771 83.41 74.7868 87.0592 73.809C87.1733 73.7784 88.0583 73.4726 88.0583 73.4726C88.5914 73.3297 88.9082 72.7812 88.7653 72.248C88.6224 71.7148 88.0739 71.3981 87.5407 71.541L71.1181 75.9414C67.9169 76.7991 64.6273 74.8996 63.7696 71.6987C62.9119 68.4976 64.8111 65.208 68.0123 64.3503L89.2625 58.6563C91.1423 58.1526 93.7115 57.58 95.9796 58.8584C96.7722 59.3045 97.5276 59.9677 98.2025 60.9484L104.24 70.6608C104.806 71.569 107.129 75.8023 107.181 76.8008C110.981 90.9805 98.1242 110.228 78.2185 115.562C58.9468 120.728 44.456 107.804 39.3179 88.6281L39.1994 88.1859C39.2239 88.1998 39.2482 88.2057 39.2728 88.2199C41.4312 89.4678 43.3651 89.5913 45.386 89.0498L45.865 88.9214Z"
                fill="#FFDC5D" />
            <path
                d="M38.6338 63.943L39.1572 63.8028C42.2155 62.9833 45.356 64.7982 46.1744 67.8524L49.4211 79.9692C50.2399 83.0252 48.4271 86.1655 45.3708 86.9844L44.8455 87.1252C41.7892 87.9441 38.6488 86.131 37.83 83.075L34.5833 70.9583C33.7649 67.904 35.5775 64.7619 38.6338 63.943ZM62.8737 76.0829C63.3349 77.8042 62.9799 79.5392 62.0707 80.9217C61.2912 82.1077 60.1089 83.0354 58.6311 83.4314C55.4299 84.2891 52.1404 82.3899 51.2826 79.1887L46.6239 61.8021C46.2015 60.2257 46.4532 58.6301 47.1949 57.3111C47.9576 55.9536 49.2417 54.8889 50.8665 54.4536C54.0677 53.5958 57.3572 55.4951 58.215 58.6962L62.8737 76.0829ZM67.4954 62.4212C65.1751 63.0429 63.3957 64.64 62.4142 66.6401L59.1117 54.315C58.7192 52.8504 58.9253 51.3789 59.5466 50.1192C60.2843 48.6233 61.6156 47.4324 63.3543 46.9665C66.5552 46.1088 69.845 48.008 70.7028 51.2091L73.2909 60.8683L67.4954 62.4212ZM73.1484 52.6099C72.7281 51.041 72.9787 49.4564 73.7113 48.1419C74.473 46.7803 75.7541 45.7125 77.3809 45.2766L77.4078 45.2693C80.6016 44.4154 83.8839 46.3107 84.7396 49.504L86.8137 57.2449L75.2226 60.3507L73.1484 52.6099Z"
                fill="#FFDC5D" />
        </g>
        <g clip-path="url(#clip2_1_100)">
            <path
                d="M166.667 30.9059C162.984 30.9059 160 33.8899 160 37.5726V37.5859L153.333 24.2393C149.651 24.2393 146.666 27.2233 146.666 30.9059V34.3326L140 30.2393C136.317 30.2393 133.333 33.2233 133.333 36.9059V46.3325L130.667 70.9994H166.778L166.667 30.9059Z"
                fill="#EF9645" />
            <path
                d="M195.667 66.2507C191.984 64.6214 186.723 66.8054 183 72.0854C180.555 75.5519 179.835 80.4881 176.624 81.0026C175.398 81.1973 173.334 80.168 173.334 77.2772V35C173.334 35 173.334 29.6667 168 29.6667C162.667 29.6667 162.667 35 162.667 35V66.0212C162.667 65.9441 160 65.8508 160 65.8028V28.3333C160 28.3333 160 23 154.667 23C149.334 23 149.334 28.3333 149.334 28.3333V65.8079C149.334 65.8532 146.667 65.9174 146.667 65.9921V34.3333C146.667 34.3333 146.667 29 141.334 29C136 29 136 34.3333 136 34.3333V68.0348C136 68.3492 133.334 68.7041 133.334 69.0959V46.3334C133.334 46.3334 133.334 41 128 41C122.667 41 122.667 46.3334 122.667 46.3334V86.9999C122.667 104.672 136.995 119 154.667 119C167.4 119 176.16 112.072 181.056 104.888C185.208 98.7947 186.414 92.4668 186.667 90.5546C186.667 90.5546 186.995 86.6108 189.75 82.9148C193.667 77.6639 196.416 74.4986 198.083 72.6053C198.928 71.6507 199.75 68.0561 195.667 66.2507Z"
                fill="#FFDC5D" />
            <path
                d="M174.504 80.2562C173.712 79.547 173.512 78.7841 173.392 78.1016C168.347 78.7922 161.507 80.2055 156.253 85.3415C149.437 92.0057 148.275 99.2081 148.331 104.027C148.376 107.912 150.496 109.752 151.117 103.995C151.896 96.779 157.128 82.4936 174.541 81.1148C174.616 81.1097 175.573 81.0509 176.117 81.0215C176.117 81.0215 175.179 80.8616 174.504 80.2562Z"
                fill="#EF9645" />
        </g>
        <g clip-path="url(#clip3_1_100)">
            <mask id="mask0_1_100" style="mask-type:luminance" maskUnits="userSpaceOnUse" x="177" y="-1" width="133"
                height="133">
                <path d="M205.61 -0.443488L309.93 27.509L281.978 131.829L177.658 103.877L205.61 -0.443488Z"
                    fill="white" />
            </mask>
            <g mask="url(#mask0_1_100)">
                <path
                    d="M216.948 61.6556C217.885 61.1147 218.916 60.7231 219.978 60.4921L222.19 56.8732L245.45 62.9319L245.493 66.3318C246.772 66.9697 248.207 68.2673 248.972 69.494L262.506 60.84C264.591 62.5291 265.615 65.3379 264.875 68.0994L264.129 70.8813L272.486 86.0593L270.74 92.3872L233.478 115.725C233.478 115.725 214.87 63.2573 214.774 63.3248C215.316 62.7743 216.801 61.6844 216.948 61.6556Z"
                    fill="#EF9645" />
                <path
                    d="M224.724 60.582L243.794 65.6919C244.397 65.8534 244.969 66.0718 245.506 66.3399L245.933 65.591L265.095 32.0146C265.095 32.0146 267.82 26.6666 262.475 23.9453C257.129 21.2211 254.405 26.5661 254.405 26.5661L236.448 57.6857C235.137 57.409 233.855 57.1866 232.583 56.9825L234.773 24.9209C234.773 24.9209 235.774 19.0054 229.857 18.0006C223.941 16.9995 222.94 22.9149 222.94 22.9149L220.258 56.8603L219.971 60.4919C221.498 60.1712 223.113 60.1503 224.724 60.582ZM271.671 66.9497L271.184 66.8192C268.115 65.9969 264.965 67.8178 264.143 70.8866L260.908 82.9587C260.086 86.0274 261.903 89.1792 264.972 90.0014L265.459 90.1319C268.528 90.9541 271.677 89.1333 272.499 86.0645L275.734 73.9924C276.556 70.9236 274.739 67.7719 271.671 66.9497ZM249.325 70.1555L249.44 70.3787C250.402 72.2797 250.754 74.492 250.158 76.7146C250.109 76.8971 250.025 77.0609 249.962 77.2367C249.308 79.1672 248.067 80.7415 246.475 81.8121C246.581 82.241 246.759 82.6428 246.952 83.0361C247.689 84.5287 248.997 85.7208 250.727 86.1844C253.926 87.0416 257.218 85.1409 258.075 81.9417L262.734 64.5551C263.076 63.2771 262.964 61.9923 262.52 60.8452C261.851 59.1224 260.415 57.7222 258.491 57.2066C255.292 56.3494 252 58.2501 251.143 61.4492L248.986 69.4993C249.12 69.706 249.206 69.9403 249.325 70.1555Z"
                    fill="#FFDC5D" />
                <path
                    d="M264.259 92.9172C261.292 92.1221 259.09 89.8983 258.186 87.1841C257.688 87.6188 257.132 87.9763 256.551 88.2896C252.252 90.6005 246.949 88.9591 244.543 84.8049C244.221 84.2464 243.902 83.6858 243.708 83.0654L243.719 83.0591C243.047 83.2363 242.033 83.8559 239.136 83.0795L231.784 81.1096C232.639 82.2054 233.352 83.4647 233.975 84.8025C236.394 90.007 237.008 96.8149 235.149 103.752C234.935 104.552 234.112 105.027 233.312 104.813C232.512 104.599 232.037 103.775 232.251 102.976C234.23 95.5922 233.189 88.3965 230.022 83.7434C228.391 81.3465 226.209 79.6157 223.56 78.906C221.433 78.5813 221.882 75.3506 223.974 75.9112L239.912 80.1817C243.111 81.0389 246.403 79.1382 247.26 75.9391C248.118 72.7399 246.217 69.4478 243.018 68.5906L219.836 62.3789C217.349 61.7127 214.563 62.8171 213.193 64.9939L207.26 74.5385C206.701 75.4292 204.419 79.5883 204.368 80.5684C200.634 94.5038 210.359 112.639 226.92 117.076C245.863 122.152 265.303 111.114 270.764 92.3805L270.716 92.3986C268.878 93.2882 266.746 93.5834 264.619 93.0135L264.259 92.9172Z"
                    fill="#FFDC5D" />
            </g>
        </g>
    </g>
    <defs>
        <clipPath id="clip0_1_100">
            <rect width="312" height="144" fill="white" />
        </clipPath>
        <clipPath id="clip1_1_100">
            <rect width="144" height="144" fill="white" />
        </clipPath>
        <clipPath id="clip2_1_100">
            <rect width="136" height="144" fill="white" transform="translate(88)" />
        </clipPath>
        <clipPath id="clip3_1_100">
            <rect width="144" height="144" fill="white" transform="translate(168)" />
        </clipPath>
    </defs>
</svg>